<svg xmlns="http://www.w3.org/2000/svg" width="1em" height="1em" fill="#fff" class="_8qsphw1- _2q3yEOJT" viewBox="0 0 1024 1024"><path d="M426.7 917.3c35.3 0 64-28.7 64-64s-28.7-64-64-64-64 28.7-64 64 28.7 64 64 64zm341.3 0c35.3 0 64-28.7 64-64s-28.7-64-64-64-64 28.7-64 64 28.7 64 64 64zM192 128c14.8 0 31.8 3 50.1 11.9 26.2 12.7 47.2 34.6 59 64.5l2.9 8.3c3.4 9.3 5.6 19.3 7.8 34.7l1.1 8.6h530.9c56.6 0 102.8 44.1 106.4 99.7l.2 7.1c0 5-.4 9.9-1.1 14.8l-6.8 47.5-34.4 186.6c-9.8 62.9-61.2 110.2-123.3 113.9l-7.8.2H410.3c-65.3 0-120.6-48.3-131-113.7L236.8 341l-2-15.1-1.7-14.7-4-36.9-1.5-12.2-1.4-9.5-1.4-7c-.5-2-.9-3.6-1.3-4.9-6.3-19.5-17-26.1-28.2-27.2l-3.3-.1h-85.3c-23.6 0-42.7-19.1-42.7-42.7 0-21.9 16.5-39.9 37.7-42.4l5-.3H192zm651.8 213.3H323.2l40.4 257.5c3.6 22.4 20.8 39 41.5 41.4l5.2.3H777c23 0 43-17.5 47-43.1l35.2-192 5.6-39.8c.1-1 .2-2 .3-2.9 0-10.5-7.5-19.2-17.5-21l-3.8-.4z"/></svg>