<svg xmlns="http://www.w3.org/2000/svg" width="1em" height="1em" fill="#fff" aria-hidden="true" class="YezB4kyJ _1ttmS_58 Fi7Tndm3" viewBox="0 0 1024 1024"><path d="M542.7 34.1c58.8 0 110.7 40.1 127.6 98.8l.7 2.5.5 1.1.9 2.7.7 2.8c6.2 29.5 9.5 59.1 9.5 88.8 0 26.2-2.4 52.3-7.2 78l-1.8 9.2 145.4.1c2.5 0 5 .2 7.5.5l1.1.1 2.7.2c41.3 3.2 79.2 25.6 102.2 61.6l2.6 4.2c15.3 25.2 22.4 54.8 20.2 84.5l.1-1.4.1-1.1v1.1c.1 5.4-.3 10.6-1.2 15.3l-.8 3.4-74 340c-2.1 8.1-5.5 15.7-10.1 22.4l.4-.8 1.2-1.8-1.6 3.2c-9.9 18.7-23.9 34.8-40.8 47l-4.6 3.2c-21.9 14.4-47 21.9-72.5 21.9-.9 0-1.7 0-2.5-.1l-612.3-.2c-36.4 0-66.4-29.7-68.2-67.4l-.1-3.6c-.1-1.6-.2-2.7 0-4l.3-389.6c0-34.8 24.3-64.4 57.2-70.1l3.4-.4c102-11.9 169.3-32.5 200-59 42.2-36.2 80.1-108.7 80.1-154.3 0-78.4 59-138.7 133.3-138.8zM324.3 494.9c-28.3 0-51.2 22.9-51.2 51.2v204.8c0 28.3 22.9 51.2 51.2 51.2 28.3 0 51.2-22.9 51.2-51.2V546.1c0-28.3-22.9-51.2-51.2-51.2z"/></svg>