<svg xmlns="http://www.w3.org/2000/svg" width="1em" height="1em" fill="#fff" aria-hidden="true" class="YezB4kyJ _1ttmS_58 Fi7Tndm3" viewBox="0 0 1024 1024"><path d="M840.8 116 943 409.8c11.6 33.7 8.4 69.4-8.2 98.8L691.3 930.4c-33.6 57.5-110.2 75.9-171.4 41.2L110.8 735.4c-60.7-35.7-83-111.3-50.1-169.1l243.5-421.8c15.3-25.8 40.3-45.1 69.5-53.6l12.1-2.9 305.4-58.4C754.7 17.7 819 54.9 840.8 116zm-248 529.9c-32.7-18.9-74.4-7.7-93.2 25-18.9 32.7-7.7 74.4 25 93.2 21.1 12.2 47.1 12.2 68.2 0s34.1-34.7 34.2-59.1c0-24.4-13-46.9-34.2-59.1zM682 419.1 309 519c-26.4 8.1-41.6 35.6-34.5 62.2 7.1 26.6 34.1 42.8 61 36.7l373-100c26.4-8.1 41.6-35.6 34.5-62.2-7.1-26.6-34.1-42.8-61-36.6zM492.9 272.8c-32.7-18.8-74.4-7.7-93.3 25-18.8 32.6-7.7 74.4 25 93.3 21.1 12.2 47.1 12.2 68.3 0C514 378.9 527 356.4 527 332s-13-46.9-34.1-59.2z"/></svg>